PathFileType	4	(X/Y/Z)	D:\TRACE\v60_Jaco2_6-2-23\JustArmDRS_Motion2_2-v60.trc
DataRate	CameraRate	NumFrames	NumMarkers	Units	OrigDataRate	OrigDataStartFrame	OrigNumFrames
100.00	100.00	      24	9	mm	100.00	2627	      7005
Frame#	Time	front left toe			Front right toe			aft left toe			aft right toe			Arm			FL body			FR body			AL Body			AR Body			
		X1	Y1	Z1	X2	Y2	Z2	X3	Y3	Z3	X4	Y4	Z4	X5	Y5	Z5	X6	Y6	Z6	X7	Y7	Z7	X8	Y8	Z8	X9	Y9	Z9	

2627	26.260	-214.01823	3.16214	-175.95174	193.56996	2.69507	-221.51805	-147.69012	44.04960	427.95517	254.95374	50.13916	414.85345	-37.99013	1089.55725	-661.87128	-126.39812	556.16205	-335.91373	33.46154	559.53558	-353.87369	-25.70109	621.10767	601.58337	130.72276	619.11517	586.49817	
2628	26.270	-213.25339	3.48955	-175.47031	194.42766	2.98754	-221.36971	-146.71170	43.56011	428.05252	256.00705	49.42392	414.91702	-36.87099	1089.04822	-661.71674	-124.74465	555.52429	-335.62790	34.26614	559.02203	-353.24014	-24.25796	621.14990	601.64990	131.55757	619.04846	586.55835	
2629	26.280	-211.81021	3.61865	-175.38112	195.87396	3.48233	-220.98463	-145.74782	43.13016	428.22995	256.97119	48.97628	415.28018	-34.90908	1088.70581	-661.74774	-123.82455	555.29950	-335.70316	35.22639	558.88287	-353.30627	-23.39356	621.05865	601.77582	132.85501	618.70129	586.81769	
2630	26.290	-210.66618	4.01249	-175.20140	196.72212	3.68015	-220.75253	-144.44168	42.34477	428.62238	257.59363	48.20177	415.43668	-33.43420	1088.35535	-661.68811	-122.47392	555.12891	-335.50949	37.44883	558.60944	-353.02756	-22.02415	621.03455	601.87891	133.75755	618.44287	586.84192	
2631	26.300	-209.80006	4.25900	-174.85553	197.73996	4.03656	-220.37924	-143.34637	41.64996	428.82825	259.14114	47.91085	415.77005	-32.18702	1088.04578	-661.50897	-121.40659	554.99451	-335.41721	37.84972	558.28711	-352.19962	-20.70937	620.65295	602.22345	135.12656	617.86853	587.27466	
2632	26.310	-208.32285	4.49155	-174.78099	199.00563	4.33539	-220.26167	-142.51781	41.23378	428.89594	260.15668	47.12479	415.97348	-30.31196	1087.71021	-661.31842	-120.07407	554.90033	-335.12708	39.16896	557.99573	-352.37115	-19.32568	620.35406	602.50427	136.64906	618.08276	587.49701	
2633	26.320	-207.09581	4.63949	-174.52548	200.10193	4.68619	-220.08080	-140.97844	40.50659	429.19601	261.79752	46.56005	416.32413	-28.97225	1087.73889	-660.69122	-117.93221	554.60394	-334.60791	40.85124	557.74719	-352.14151	-18.56223	620.13287	602.70715	137.87138	617.44727	587.91296	
2634	26.330	-206.10970	5.41959	-174.35774	201.34123	5.27383	-219.94440	-139.99443	39.91235	429.52502	262.65063	45.87302	416.53546	-27.22203	1088.07703	-660.48346	-116.95312	554.90948	-334.68445	42.60772	557.99347	-352.68933	-17.00973	619.97668	603.02356	138.84636	617.17499	588.04736	
2635	26.340	-205.85170	6.28513	-174.22203	202.42999	5.55490	-219.69130	-138.78917	39.13810	429.62292	263.78424	45.15794	416.94061	-25.28659	1088.08716	-660.02856	-115.94588	554.93207	-334.31650	44.04255	557.90631	-351.95102	-15.62045	619.67255	603.34076	140.62181	617.08411	588.39972	
2636	26.350	-204.52936	6.47536	-173.79030	203.75114	6.00707	-219.33098	-137.79951	38.62673	429.79132	264.66730	44.50343	417.18237	-23.81127	1088.15259	-659.51080	-114.90060	554.74359	-334.19223	44.89049	557.84674	-351.29178	-15.12692	619.12231	602.35608	141.68294	616.65405	588.51434	
2637	26.360	-203.56041	7.19056	-173.72578	204.67348	6.30800	-219.21397	-136.58377	37.73212	430.20984	265.76007	43.63692	417.37070	-22.00611	1088.53552	-658.93048	-113.07811	555.05139	-333.75323	46.14644	557.83197	-351.07187	-12.86347	618.99689	603.63928	143.06296	616.10858	588.97076	
2638	26.370	-202.28596	7.04278	-173.40620	206.01990	6.80298	-218.78465	-135.38550	36.96841	430.39392	267.28763	42.94196	417.62653	-20.05452	1088.43762	-658.39471	-111.74068	555.08691	-333.16428	48.12331	558.07666	-351.15225	-11.38384	618.56036	603.99005	144.81660	615.81378	589.55328	
2639	26.380	-201.27060	7.67708	-173.07233	206.90530	7.05385	-218.62173	-134.24973	36.38094	430.49710	268.21027	42.22622	417.77533	-18.54410	1088.56519	-657.93140	-110.22203	555.21185	-333.08771	48.75628	558.16809	-350.35309	-10.19358	618.32416	604.67645	145.64526	615.26819	589.66815	
2640	26.390	-199.98203	8.22522	-172.91400	208.35947	7.70946	-218.21428	-133.05043	35.61676	430.92340	269.78113	41.50687	418.06876	-16.73010	1089.03552	-657.15704	-108.52376	555.47827	-332.51788	50.54089	558.32758	-349.86472	-8.87331	617.84570	605.14105	147.08757	614.58899	590.03046	
2641	26.400	-198.73193	8.28071	-172.65010	209.15625	8.16726	-218.03418	-132.03004	34.83054	431.15201	270.29178	40.83439	418.33093	-14.86713	1089.57300	-656.28217	-107.32670	555.85034	-332.41156	52.34267	558.53967	-349.68903	-7.42102	617.46143	605.59216	148.63605	614.28430	590.87158	
2642	26.410	-197.69658	8.87093	-172.16833	210.57939	8.59306	-217.69510	-130.80940	34.05685	431.37415	271.66928	40.05993	418.69855	-13.39950	1090.08423	-655.64844	-106.04468	556.08795	-332.07874	53.74126	558.70184	-349.57919	-6.25850	616.79034	605.94989	149.51942	613.43738	591.09290	
2643	26.420	-196.54500	9.23155	-171.96053	211.75467	8.99972	-217.40645	-129.95430	33.47035	431.68839	272.49237	39.03395	419.17203	-11.47872	1090.84460	-654.65161	-104.45289	556.51770	-331.54688	54.69719	558.86462	-348.73184	-4.80056	616.45697	606.36407	150.98424	612.73389	591.52350	
2644	26.430	-195.20383	9.63138	-171.67455	212.66858	9.32000	-217.01987	-128.48213	32.45818	432.12546	274.20517	38.41692	419.56699	-9.60854	1091.25671	-653.65112	-103.24123	556.80853	-331.32104	56.09349	558.96368	-348.31305	-3.30985	615.69507	606.91620	152.73631	612.38239	592.10883	
2645	26.440	-194.21144	10.42273	-171.37897	213.81686	9.74985	-216.72415	-127.35815	31.57316	432.29251	275.20950	37.59375	419.82870	-7.68884	1091.98450	-652.79291	-101.76928	557.01105	-330.77615	58.04902	559.32080	-348.03259	-1.87667	615.14905	607.38385	154.35475	611.72516	592.60687	
2646	26.450	-193.46542	10.57032	-171.14655	215.21872	10.30423	-216.42827	-126.32378	30.97557	432.50211	276.36826	36.70109	420.00476	-5.99034	1092.70691	-651.89642	-100.24194	557.76459	-330.41843	59.16148	559.54425	-347.16995	-0.80650	614.39032	607.38971	155.67415	610.83136	592.99451	
2647	26.460	-191.82262	11.29732	-170.94849	216.25331	10.87136	-216.23152	-125.06161	29.89315	432.82629	277.68494	35.86946	420.34357	-4.11218	1093.38330	-650.89514	-98.98750	557.80249	-329.85370	60.45707	559.74866	-346.89673	0.65388	613.68048	608.25079	156.79295	609.94678	593.39673	
2648	26.470	-190.71780	11.63738	-170.64604	217.64594	11.47494	-215.72896	-123.88081	29.09470	433.10580	278.37463	34.91608	420.54303	-1.76910	1093.90649	-649.64795	-97.55676	558.36145	-329.48700	61.67913	560.35364	-346.42896	2.31409	612.85687	609.02924	158.34335	609.13184	594.09131	
2649	26.480	-189.45747	11.81646	-170.38356	218.21872	11.82005	-215.59218	-122.80424	28.25792	433.48398	279.91995	34.20780	420.99670	0.19687	1094.68884	-648.61536	-96.03011	558.72644	-328.96555	63.89851	560.57007	-346.11218	3.50574	612.19965	609.51740	159.81741	608.40851	594.58167	
2650	26.490	-188.39604	12.45937	-169.95657	219.89708	12.58664	-215.06935	-121.76878	27.49196	433.78558	280.62531	33.00393	421.15057	2.01450	1095.25879	-647.41937	-94.39393	559.23840	-328.42651	65.66417	560.98114	-345.68198	5.07695	611.56317	610.15790	161.08891	607.47943	594.99615	
